---
---
<svg xmlns:rdf="http://www.w3.org/1999/02/22-rdf-syntax-ns#"
	xmlns="http://www.w3.org/2000/svg"
	xmlns:osb="http://www.openswatchbook.org/uri/2009/osb"
	version="1.1"
	xmlns:cc="http://creativecommons.org/ns#"
	xmlns:xlink="http://www.w3.org/1999/xlink"
	viewBox="0 0 1080 1080"
	xmlns:dc="http://purl.org/dc/elements/1.1/"
	style="position: fixed; z-index: 2; top: 0; left: 0; height: 100vh; width: 100vw; min-width: 100vw; min-height: 100vh;"
	>
	<defs>
		<linearGradient id="Digital_Blue" osb:paint="solid">
			<stop stop-color="#27b" offset="0"></stop>
		</linearGradient>
		<linearGradient id="Magical_Purple" osb:paint="solid">
			<stop stop-color="#72b" offset="0"></stop>
		</linearGradient>
		<linearGradient id="Silly_Magenta" osb:paint="solid">
			<stop stop-color="#b27" offset="0"></stop>
		</linearGradient>
		<linearGradient id="Not_Green" osb:paint="solid">
			<stop stop-color="#2b7" offset="0"></stop>
		</linearGradient>
		<linearGradient id="Hardly-Working_Orange" osb:paint="solid">
			<stop stop-color="#b72" offset="0"></stop>
		</linearGradient>
	</defs>
	<metadata>
		<rdf:rdf>
			<cc:work rdf:about="">
				<dc:format>image/svg+xml</dc:format>
				<dc:type rdf:resource="http://purl.org/dc/dcmitype/StillImage"></dc:type>
				<dc:title></dc:title>
			</cc:work>
		</rdf:rdf>
	</metadata>
	<g transform="translate(-420 27.638)">

		<g fill-rule="evenodd" transform="matrix(.86603 -.5 .5 .86603 -127.43 549.14)">
			<g>
				<rect height="90" width="10000" y="332.36" x="-9030" id="Flying_Logo_Stripe_1" fill="url(#Not_Green)"/>
				<rect height="90" width="10000" y="422.36" x="-9030" id="Flying_Logo_Stripe_2" fill="url(#Magical_Purple)" stroke-width="2" stroke="url(#Magical_Purple)"/>
				<rect height="90" width="10000" y="512.36" x="-9030" id="Flying_Logo_Stripe_3" fill="url(#Silly_Magenta)"  stroke-width="2" stroke="url(#Silly_Magenta)"/>
				<rect height="90" width="10000" y="601" x="-9030" id="Flying_Logo_Stripe_4" fill="url(#Hardly-Working_Orange)"></rect>
			</g>
		</g>
		<g transform="matrix(.39290 0 0 .39290 764.32 329.25)">
			<path d="m878.64 459.93c0 213.28-172.89 386.17-386.17 386.17s-386.17-172.89-386.17-386.17 172.89-386.17 386.17-386.17 386.17 172.89 386.17 386.17z" fill="#222"></path>
			<g stroke="#222" stroke-width="48" fill="none">
				<path d="m498.05 900.51c-239.95 0-434.46-194.52-434.46-434.46 0-239.95 194.52-434.46 434.46-434.46 239.95 0 434.46 194.52 434.46 434.46 0 239.95-194.52 434.46-434.46 434.46m-5.0802-134.98c-194.4 0-351.99-157.59-351.99-351.99s157.59-351.99 351.99-351.99 351.99 157.59 351.99 351.99-157.59 351.99-351.99 351.99z"></path>
				<path d="m501.34 656.42c-38.823 2.5348-61.711 24.4-116.16 23.254-15.545 0.23146-47.064-20.824-49.632-52.094-0.46855-23.474 50.941-77.073 71.457-120.43 11.19-23.648 27.546-80.638 88.329-85.065 61.477-5.2203 78.428 64.971 94.363 84.302 29.889 36.734 73.457 77.178 70.118 104.62-1.5917 17.635-20.125 62.917-60.852 67.436-31.012 4.3753-58.801-24.563-97.625-22.028m118.98-236.21c-11.613 52.339 3.6805 86.097 35.37 94.962 28.725 8.0363 59.787-17.094 71.376-56.846 15.549-53.34-14.158-111.7-39.465-116.89-27.754-6.4214-55.948 28.815-67.281 78.769m-118.4-131.35c-12.349 61.338-2.4113 98.974 38.775 111.54 30.89 6.2814 72.077-14.657 80.314-52.345 12.356-56.532-38.656-114.36-64.83-120.99-24.736-6.2706-46.421 22.866-54.26 61.799m-86.42 114.46c24.665 6.5597 52.343-10.38 59.505-39.584 15.754-60.504-18.457-130.29-44.702-136.64-23.656-5.6898-65.128 33.859-76.402 79.835-10.837 47.929 25.354 85.974 61.599 96.39m-112.04 123.01c27.4 7.8672 60.259-6.5305 68.126-39.856 11.07-42.649-34.5-114.71-65.848-121.42-20.563-4.5986-38.825 13.807-45.763 41.102-14.981 59.594-0.0968 107.29 43.485 120.18m378.4-206.3c7.9826 2.3308 25.012 2.6549 26.993-6.6709 2.4148-8.6017-7.8858-38.854-14.352-38.651-7.1827 0.63618-30.549 39.861-12.642 45.322m-143.31-124.48c5.2013 8.6896 30.075 13.152 34.716 4.1936 6.4966-12.788-4.2724-38.918-14.426-39.591-10.589-0.7021-25.708 26.346-20.29 35.398m-140.31 4.0523c8.2743 3.6331 24.487-3.9277 29.987-13.897 5.8544-11.415-13.91-35.468-25.746-29.561-10.331 4.7523-15.538 38.445-4.2415 43.459m-141.27 150c7.3445 4.9332 26.784-4.574 28.12-13.756 1.9025-11.496-23.366-26.808-27.668-24.213-4.661 2.8111-9.3089 31.731-0.45139 37.97z"></path>
			</g>
			<g fill="#fff" fill-rule="evenodd">
				<path d="m498.05 900.51c-239.95 0-434.46-194.52-434.46-434.46 0-239.95 194.52-434.46 434.46-434.46 239.95 0 434.46 194.52 434.46 434.46 0 239.95-194.52 434.46-434.46 434.46m-5.0802-134.98c-194.4 0-351.99-157.59-351.99-351.99s157.59-351.99 351.99-351.99 351.99 157.59 351.99 351.99-157.59 351.99-351.99 351.99z"></path>
				<path d="m501.34 656.42c-38.823 2.5348-61.711 24.4-116.16 23.254-15.545 0.23146-47.064-20.824-49.632-52.094-0.46855-23.474 50.941-77.073 71.457-120.43 11.19-23.648 27.546-80.638 88.329-85.065 61.477-5.2203 78.428 64.971 94.363 84.302 29.889 36.734 73.457 77.178 70.118 104.62-1.5917 17.635-20.125 62.917-60.852 67.436-31.012 4.3753-58.801-24.563-97.625-22.028m118.98-236.21c-11.613 52.339 3.6805 86.097 35.37 94.962 28.725 8.0363 59.787-17.094 71.376-56.846 15.549-53.34-14.158-111.7-39.465-116.89-27.754-6.4214-55.948 28.815-67.281 78.769m-118.4-131.35c-12.349 61.338-2.4113 98.974 38.775 111.54 30.89 6.2814 72.077-14.657 80.314-52.345 12.356-56.532-38.656-114.36-64.83-120.99-24.736-6.2706-46.421 22.866-54.26 61.799m-86.42 114.46c24.665 6.5597 52.343-10.38 59.505-39.584 15.754-60.504-18.457-130.29-44.702-136.64-23.656-5.6898-65.128 33.859-76.402 79.835-10.837 47.929 25.354 85.974 61.599 96.39m-112.04 123.01c27.4 7.8672 60.259-6.5305 68.126-39.856 11.07-42.649-34.5-114.71-65.848-121.42-20.563-4.5986-38.825 13.807-45.763 41.102-14.981 59.594-0.0968 107.29 43.485 120.18m378.4-206.3c7.9826 2.3308 25.012 2.6549 26.993-6.6709 2.4148-8.6017-7.8858-38.854-14.352-38.651-7.1827 0.63618-30.549 39.861-12.642 45.322m-143.31-124.48c5.2013 8.6896 30.075 13.152 34.716 4.1936 6.4966-12.788-4.2724-38.918-14.426-39.591-10.589-0.7021-25.708 26.346-20.29 35.398m-140.31 4.0523c8.2743 3.6331 24.487-3.9277 29.987-13.897 5.8544-11.415-13.91-35.468-25.746-29.561-10.331 4.7523-15.538 38.445-4.2415 43.459m-141.27 150c7.3445 4.9332 26.784-4.574 28.12-13.756 1.9025-11.496-23.366-26.808-27.668-24.213-4.661 2.8111-9.3089 31.731-0.45139 37.97z"></path>
			</g>
		</g>
	</g>
</svg>
