<?xml version="1.0" encoding="UTF-8"?>
<svg width="512px" height="512px" viewBox="0 0 512 512" version="1.1" xmlns="http://www.w3.org/2000/svg" xmlns:xlink="http://www.w3.org/1999/xlink">
    <title>Pawprint logo 2.2.1-rainbow-2.0 SMALL for dark BG</title>
    <defs>
        <linearGradient x1="25.2167426%" y1="5.1245552%" x2="76.480709%" y2="93.9163497%" id="linearGradient-1">
            <stop stop-color="#4CAF50" offset="0%"></stop>
            <stop stop-color="#4CAF50" offset="16.9702568%"></stop>
            <stop stop-color="#FFEB3B" offset="17.0532687%"></stop>
            <stop stop-color="#FFEB3B" offset="33.333334%"></stop>
            <stop stop-color="#FF9800" offset="33.4353979%"></stop>
            <stop stop-color="#FF9800" offset="50%"></stop>
            <stop stop-color="#E91E63" offset="50.1059069%"></stop>
            <stop stop-color="#E91E63" offset="66.5666378%"></stop>
            <stop stop-color="#9C27B0" offset="66.666669%"></stop>
            <stop stop-color="#9C27B0" offset="83.333331%"></stop>
            <stop stop-color="#2196F3" offset="83.435953%"></stop>
            <stop stop-color="#2196F3" offset="100%"></stop>
        </linearGradient>
        <path d="M217.024943,433.755563 C97.3257471,433.755563 0.294321839,336.719149 0.294321839,217.024943 C0.294321839,97.3257471 97.3307356,0.294321839 217.024943,0.294321839 C336.724138,0.294321839 433.755563,97.3307356 433.755563,217.024943 C433.755563,336.724138 336.719149,433.755563 217.024943,433.755563 M214.490682,366.420713 C117.51413,366.420713 38.900268,287.806851 38.900268,190.830299 C38.900268,93.8537471 117.51413,15.2398851 214.490682,15.2398851 C311.467234,15.2398851 390.081096,93.8537471 390.081096,190.830299 C390.081096,287.806851 311.467234,366.420713 214.490682,366.420713 Z" id="path-2"></path>
        <filter x="-14.2%" y="-11.4%" width="128.4%" height="128.4%" filterUnits="objectBoundingBox" id="filter-3">
            <feMorphology radius="2.5" operator="dilate" in="SourceAlpha" result="shadowSpreadOuter1"></feMorphology>
            <feOffset dx="0" dy="12" in="shadowSpreadOuter1" result="shadowOffsetOuter1"></feOffset>
            <feGaussianBlur stdDeviation="16" in="shadowOffsetOuter1" result="shadowBlurOuter1"></feGaussianBlur>
            <feColorMatrix values="0 0 0 0 0   0 0 0 0 0   0 0 0 0 0  0 0 0 0.75 0" type="matrix" in="shadowBlurOuter1"></feColorMatrix>
        </filter>
        <path d="M218.666161,311.991126 C199.299285,313.255613 187.881593,324.16308 160.719678,323.591398 C152.965046,323.706862 137.241775,313.203333 135.959139,297.604276 C135.72699,285.894257 161.372674,259.156366 171.607092,237.527701 C177.18923,225.730883 185.34843,197.301389 215.670064,195.092977 C246.337901,192.488827 254.793917,227.503798 262.743101,237.147078 C277.653246,255.471855 299.387168,275.647368 297.721506,289.336825 C296.927485,298.134055 287.682138,320.723007 267.365451,322.977313 C251.895097,325.159934 238.032538,310.724046 218.665163,311.988632 M278.018405,194.155138 C272.225253,220.264478 279.854424,237.104676 295.662749,241.526986 C309.992232,245.535899 325.487529,232.999634 331.268708,213.169326 C339.025336,186.560637 324.205982,157.447717 311.58157,154.858683 C297.736471,151.655364 283.671878,169.233062 278.018405,194.152644 M218.954497,128.628621 C212.794191,159.227117 217.751618,178.001857 238.297428,184.270414 C253.706922,187.403894 274.25308,176.958761 278.362113,158.15808 C284.52591,129.95706 259.078545,101.109529 246.02163,97.8021494 C233.682062,94.674057 222.864487,109.208867 218.953998,128.630616 M175.843331,185.729053 C188.14748,189.001363 201.954667,180.550984 205.527434,165.982552 C213.386326,135.800097 196.320149,100.98731 183.227816,97.8196092 C171.427007,94.9812492 150.738676,114.710191 145.114634,137.645345 C139.708591,161.554754 157.762492,180.533524 175.843331,185.729552 M119.952113,247.093161 C133.620618,251.017718 150.012349,243.835417 153.936807,227.210972 C159.459083,205.935494 136.726462,169.987823 121.088494,166.640536 C110.83063,164.346521 101.720621,173.528166 98.2595954,187.144292 C90.7863149,216.872793 98.2113067,240.66597 119.952113,247.096154 M308.71717,144.18328 C312.699295,145.346001 321.194421,145.507679 322.182644,140.855498 C323.387268,136.564535 318.248808,121.473158 315.02314,121.574425 C311.440046,121.891783 299.783754,141.459107 308.716671,144.18333 M237.226395,82.0864108 C239.821067,86.4212228 252.229326,88.6472936 254.544492,84.1783906 C257.785325,77.7990894 252.413203,64.7641239 247.348074,64.4283975 C242.065745,64.0781545 234.523623,77.5711147 237.226395,82.0867101 M167.232671,84.1082023 C171.360311,85.9205763 179.448025,82.1488669 182.191703,77.1756759 C185.112174,71.4812966 175.252692,59.4824437 169.348297,62.429154 C164.194671,64.7998416 161.597156,81.6074644 167.232422,84.1087011 M96.7598011,158.936287 C100.423609,161.397217 110.121015,156.654545 110.787479,152.074099 C111.736543,146.339313 99.1313368,138.700913 96.9852816,139.99543 C94.6601391,141.397749 92.3415315,155.824457 96.7601054,158.936786 L96.7598011,158.936287 Z" id="path-4"></path>
        <filter x="-22.6%" y="-16.1%" width="145.2%" height="141.3%" filterUnits="objectBoundingBox" id="filter-5">
            <feOffset dx="0" dy="12" in="SourceAlpha" result="shadowOffsetOuter1"></feOffset>
            <feGaussianBlur stdDeviation="16" in="shadowOffsetOuter1" result="shadowBlurOuter1"></feGaussianBlur>
            <feColorMatrix values="0 0 0 0 0   0 0 0 0 0   0 0 0 0 0  0 0 0 0.67 0" type="matrix" in="shadowBlurOuter1"></feColorMatrix>
        </filter>
    </defs>
    <g id="Pawprint-logo-2.2.1-rainbow-2.0-SMALL-for-dark-BG" stroke="none" stroke-width="1" fill="none" fill-rule="evenodd">
        <g transform="translate(33.968133, 34.000000)" id="g4766">
            <g transform="translate(5.031867, 5.000000)">
                <path d="M357.642309,107.285638 C403.368185,186.485181 376.233612,287.75279 297.03407,333.478666 C217.834527,379.204542 116.566918,352.069969 70.8410418,272.870426 C25.115166,193.670884 52.2497389,92.4032742 131.449281,46.6773984 C210.648824,0.951523051 311.916434,28.086097 357.642309,107.285638 Z" id="backdrop" fill="url(#linearGradient-1)" fill-rule="nonzero"></path>
                <path d="M217.024943,433.755563 C97.3257471,433.755563 0.294321839,336.719149 0.294321839,217.024943 C0.294321839,97.3257471 97.3307356,0.294321839 217.024943,0.294321839 C336.724138,0.294321839 433.755563,97.3307356 433.755563,217.024943 C433.755563,336.724138 336.719149,433.755563 217.024943,433.755563 M214.490682,366.420713 C117.51413,366.420713 38.900268,287.806851 38.900268,190.830299 C38.900268,93.8537471 117.51413,15.2398851 214.490682,15.2398851 C311.467234,15.2398851 390.081096,93.8537471 390.081096,190.830299 C390.081096,287.806851 311.467234,366.420713 214.490682,366.420713 Z" id="ring-outline" stroke="#222222" stroke-width="24"></path>
                <g id="ring">
                    <use fill="black" fill-opacity="1" filter="url(#filter-3)" xlink:href="#path-2"></use>
                    <use fill="#FFFFFF" fill-rule="evenodd" xlink:href="#path-2"></use>
                </g>
                <g id="pawprint">
                    <use fill="black" fill-opacity="1" filter="url(#filter-5)" xlink:href="#path-4"></use>
                    <use fill="#FFFFFF" fill-rule="evenodd" xlink:href="#path-4"></use>
                </g>
            </g>
        </g>
    </g>
</svg>